<?xml version="1.0" standalone="no"?>
<!DOCTYPE svg PUBLIC "-//W3C//DTD SVG 20010904//EN"
 "http://www.w3.org/TR/2001/REC-SVG-20010904/DTD/svg10.dtd">
<svg version="1.0" xmlns="http://www.w3.org/2000/svg"
 width="40.000000pt" height="40.000000pt" viewBox="0 0 1024.000000 1024.000000"
 preserveAspectRatio="xMidYMid meet">

<g transform="translate(0.000000,1024.000000) scale(0.100000,-0.100000)"
fill="#000000" stroke="none">
<path d="M6802 8655 c-69 -15 -298 -126 -374 -182 -109 -79 -199 -206 -215
-303 -5 -25 -6 -409 -3 -855 7 -925 0 -860 100 -1021 78 -127 180 -209 298
-239 66 -17 123 -10 190 24 51 26 107 122 122 210 8 47 10 305 8 894 l-3 827
500 0 c324 0 514 -4 539 -11 51 -14 116 -76 149 -141 98 -195 66 -482 -89
-791 -28 -55 -154 -235 -212 -302 -285 -328 -574 -562 -891 -720 -258 -129
-295 -136 -787 -142 l-381 -5 -31 74 c-17 40 -58 150 -92 243 -34 94 -98 253
-143 355 -44 102 -95 221 -114 265 -52 121 -247 522 -331 680 -41 77 -114 214
-162 305 -211 398 -266 494 -312 542 -98 101 -246 134 -390 87 -132 -42 -140
-53 -467 -704 -174 -345 -287 -582 -419 -880 -70 -159 -219 -547 -334 -870
-33 -93 -79 -219 -100 -280 -22 -60 -60 -166 -83 -235 -399 -1158 -428 -1240
-564 -1610 -17 -47 -36 -94 -41 -105 -5 -11 -23 -54 -39 -95 -130 -334 -324
-742 -462 -970 -145 -239 -189 -358 -189 -503 1 -224 173 -493 376 -589 123
-58 150 -59 799 -56 567 4 593 5 667 25 137 39 259 112 363 217 80 81 120 149
148 250 26 95 38 430 28 791 -7 243 -10 276 -30 326 -41 106 -107 175 -218
227 -50 23 -70 27 -148 26 -74 0 -100 -5 -147 -26 -101 -47 -173 -141 -198
-263 -7 -32 -9 -203 -8 -458 l3 -407 -362 0 c-200 0 -363 1 -363 3 0 2 30 59
66 128 171 320 371 821 586 1464 l10 30 1211 0 1211 0 7 -25 c9 -33 122 -335
142 -380 9 -19 45 -105 81 -190 223 -526 534 -1010 855 -1330 156 -155 280
-247 436 -324 206 -102 254 -110 655 -111 258 0 318 3 390 18 319 69 571 244
694 482 63 124 105 304 106 458 0 126 -55 325 -122 440 -34 59 -154 221 -218
297 -161 189 -525 705 -788 1116 -35 54 -101 156 -145 226 -45 70 -103 160
-129 200 -93 146 -153 183 -293 183 -83 0 -95 -3 -153 -34 -103 -56 -152 -145
-152 -277 0 -139 20 -184 302 -699 148 -269 362 -621 463 -760 28 -38 62 -88
77 -110 86 -133 463 -545 499 -545 6 0 -2 -13 -17 -28 -16 -15 -49 -50 -74
-78 -134 -146 -365 -232 -546 -204 -167 26 -258 74 -394 210 -186 186 -312
373 -513 765 -243 475 -533 1266 -685 1873 l-28 112 191 0 c690 0 1205 132
1600 409 146 103 327 272 470 442 106 125 159 198 279 379 48 74 97 147 107
162 21 31 83 150 99 192 13 36 76 312 95 421 18 106 21 637 4 762 -20 145 -79
257 -208 394 -160 171 -342 286 -504 320 -84 17 -140 19 -642 18 -427 0 -564
-4 -613 -14z m-2372 -1728 c48 -100 111 -238 140 -307 29 -69 79 -187 112
-263 46 -106 168 -437 168 -455 0 -2 -120 -2 -267 -1 -262 3 -269 2 -321 -20
-133 -59 -234 -257 -203 -401 25 -118 108 -221 221 -274 l65 -31 351 -3 351
-3 33 -107 c18 -59 58 -184 90 -279 55 -166 56 -172 36 -177 -12 -3 -438 -6
-949 -6 l-927 0 6 28 c22 93 134 423 225 662 34 91 77 206 95 255 18 50 53
144 79 210 26 66 60 154 75 195 46 119 182 452 247 605 34 77 86 201 117 275
31 74 75 176 99 227 39 85 43 90 56 72 7 -11 53 -101 101 -202z"/>
<path d="M27 103 c-25 -4 -27 -8 -27 -54 0 -48 1 -49 30 -49 30 0 30 1 30 55
0 30 -1 54 -2 54 -2 -1 -15 -4 -31 -6z"/>
</g>
</svg>
